# xmcd
#
# Track frame offsets: 
#        150
#        16623
#        29668
#        43414
#        56478
#        77155
#        88744
#        100779
#        115345
#        130590
#        145595
#        163708
#        177995
#        193462
#        211484
#        227244
#        243158
#        256743
#        270369
#        290008
#
# Disc length: 4117 seconds
#
# Revision: 2
# Processed by: cddbd v1.5.2PL0 Copyright (c) Steve Scherf et al.
# Submitted via: ExactAudioCopyFreeDBPlugin 1.0
#
DISCID=1b101314
DTITLE=Various Artist - Boot Scootin' Fever
DYEAR=2004
DGENRE=Linedance
TTITLE0=Billy Yates - As the crow flies
TTITLE1=Brendon Walmsley - Speak to the sky
TTITLE2=Joni Harms - We work it out
TTITLE3=Dallas Wayne - Tex-Tosterone
TTITLE4=Barry Amato - The beat goes on
TTITLE5=Ian Miller - Backyard barbeque
TTITLE6=Easy Rider - From tense to loose to slack
TTITLE7=Dave Sheriff - Mama said
TTITLE8=Country Kittens - Easy Tiger
TTITLE9=Honky Tonk Heroes - Eyes of Texas
TTITLE10=Boots' N' Gunn - Boot scootin' boogie
TTITLE11=Double Take - Bad case of loving you
TTITLE12=Dave Sheriff - Beer for my horses
TTITLE13=Billy Bubba King - But for the grace of God
TTITLE14=Jaime Lovett - Do you still wanna buy me that drink
TTITLE15=Paul Bailey - I need a breather
TTITLE16=The Deans - Sundown in Nashville
TTITLE17=Sharon "B" - Sweet, sweet smile
TTITLE18=Easy Rider - Wave on wave
TTITLE19=Paul Bailey - Who wouldn't wanna be me
EXTD=
EXTT0=
EXTT1=
EXTT2=
EXTT3=
EXTT4=
EXTT5=
EXTT6=
EXTT7=
EXTT8=
EXTT9=
EXTT10=
EXTT11=
EXTT12=
EXTT13=
EXTT14=
EXTT15=
EXTT16=
EXTT17=
EXTT18=
EXTT19=
PLAYORDER=
